<?xml version="1.0" encoding="UTF-8"?>
<!DOCTYPE svg PUBLIC "-//W3C//DTD SVG 1.1//EN" "http://www.w3.org/Graphics/SVG/1.1/DTD/svg11.dtd">
<!-- Creator: CorelDRAW X7 -->
<svg xmlns="http://www.w3.org/2000/svg" xml:space="preserve" width="28.9124mm" height="28.9762mm" version="1.1" style="shape-rendering:geometricPrecision; text-rendering:geometricPrecision; image-rendering:optimizeQuality; fill-rule:evenodd; clip-rule:evenodd"
viewBox="0 0 2451 2457"
 xmlns:xlink="http://www.w3.org/1999/xlink">
 <defs>
  <style type="text/css">
   <![CDATA[
    .fil0 {fill:#FEFEFE}
   ]]>
  </style>
 </defs>
 <g id="Capa_x0020_1">
  <metadata id="CorelCorpID_0Corel-Layer"/>
  <g id="_399407636432">
   <g>
    <path class="fil0" d="M2451 396l0 -193 -203 0 0 -203 -193 0 0 270 -124 123c-204,-175 -469,-281 -759,-281 -646,0 -1172,526 -1172,1172 0,647 526,1173 1172,1173 646,0 1172,-526 1172,-1173 0,-287 -104,-550 -277,-754l135 -134 249 0zm-300 888c0,540 -439,980 -979,980 -540,0 -979,-439 -979,-980 0,-540 439,-979 979,-979 236,0 454,84 623,224l-196 194c-118,-90 -266,-145 -427,-145 -389,0 -706,317 -706,706 0,390 317,707 706,707 389,0 706,-317 706,-707 0,-159 -53,-306 -143,-424l195 -194c138,169 221,384 221,618zm-465 0c0,284 -231,514 -514,514 -283,0 -514,-230 -514,-514 0,-283 231,-513 514,-513 107,0 207,33 290,89l-154 153c-41,-21 -87,-34 -136,-34 -168,0 -305,137 -305,305 0,169 137,306 305,306 168,0 305,-137 305,-306 0,-48 -12,-94 -33,-135l154 -152c55,82 88,181 88,287z"/>
   </g>
   <g>
   </g>
   <g>
   </g>
   <g>
   </g>
   <g>
   </g>
   <g>
   </g>
   <g>
   </g>
   <g>
   </g>
   <g>
   </g>
   <g>
   </g>
   <g>
   </g>
   <g>
   </g>
   <g>
   </g>
   <g>
   </g>
   <g>
   </g>
   <g>
   </g>
  </g>
 </g>
</svg>
