<?xml version="1.0" encoding="UTF-8"?>
<!DOCTYPE svg PUBLIC "-//W3C//DTD SVG 1.1//EN" "http://www.w3.org/Graphics/SVG/1.1/DTD/svg11.dtd">
<!-- Creator: CorelDRAW X7 -->
<svg xmlns="http://www.w3.org/2000/svg" xml:space="preserve" width="41.03mm" height="48.9723mm" version="1.1" style="shape-rendering:geometricPrecision; text-rendering:geometricPrecision; image-rendering:optimizeQuality; fill-rule:evenodd; clip-rule:evenodd"
viewBox="0 0 32587 38895"
 xmlns:xlink="http://www.w3.org/1999/xlink"
 enable-background="new 0 0 19.525 23.304">
 <defs>
  <style type="text/css">
   <![CDATA[
    .fil0 {fill:#FEFEFE}
   ]]>
  </style>
 </defs>
 <g id="Capa_x0020_1">
  <metadata id="CorelCorpID_0Corel-Layer"/>
  <g id="_896729402736">
   <path class="fil0" d="M0 1l0 38894 32587 0 0 -38895 -32587 1zm30531 2054c0,1887 0,32895 0,34782 -1853,0 -26619,0 -28473,0 0,-1887 0,-32895 0,-34782 1854,0 26620,0 28473,0z"/>
   <polygon class="fil0" points="5077,28692 27896,28692 27896,30750 5077,30750 "/>
   <polygon class="fil0" points="5077,4785 27896,4785 27896,7876 5077,7876 "/>
   <polygon class="fil0" points="5077,32868 27896,32868 27896,34930 5077,34930 "/>
   <path class="fil0" d="M4982 26766l5513 0 0 -16838 -5513 0 0 16838zm8272 0l5507 0 0 -12058 -5507 0 0 12058zm7809 -7068l0 7068 5514 0 0 -7068 -5514 0z"/>
  </g>
 </g>
</svg>
