<?xml version="1.0" encoding="UTF-8"?>
<!DOCTYPE svg PUBLIC "-//W3C//DTD SVG 1.1//EN" "http://www.w3.org/Graphics/SVG/1.1/DTD/svg11.dtd">
<!-- Creator: CorelDRAW X7 -->
<svg xmlns="http://www.w3.org/2000/svg" xml:space="preserve" width="161.919mm" height="161.914mm" version="1.1" style="shape-rendering:geometricPrecision; text-rendering:geometricPrecision; image-rendering:optimizeQuality; fill-rule:evenodd; clip-rule:evenodd"
viewBox="0 0 15689 15688"
 xmlns:xlink="http://www.w3.org/1999/xlink">
 <defs>
  <style type="text/css">
   <![CDATA[
    .fil0 {fill:white}
   ]]>
  </style>
 </defs>
 <g id="Capa_x0020_1">
  <metadata id="CorelCorpID_0Corel-Layer"/>
  <g id="_397551024480">
   <g>
    <path class="fil0" d="M9147 7844l6272 -6272c360,-360 360,-943 0,-1302 -359,-360 -942,-360 -1302,0l-6272 6272 -6274 -6272c-359,-360 -943,-360 -1302,0 -359,359 -359,942 0,1301l6273 6273 -6273 6273c-359,359 -359,943 0,1302 180,180 416,269 651,269 236,0 471,-89 651,-269l6273 -6273 6273 6273c180,180 415,269 650,269 236,0 472,-89 651,-269 360,-360 360,-943 0,-1302l-6271 -6273z"/>
   </g>
   <g>
   </g>
   <g>
   </g>
   <g>
   </g>
   <g>
   </g>
   <g>
   </g>
   <g>
   </g>
   <g>
   </g>
   <g>
   </g>
   <g>
   </g>
   <g>
   </g>
   <g>
   </g>
   <g>
   </g>
   <g>
   </g>
   <g>
   </g>
   <g>
   </g>
  </g>
 </g>
</svg>
