<?xml version="1.0" encoding="UTF-8"?>
<!DOCTYPE svg PUBLIC "-//W3C//DTD SVG 1.1//EN" "http://www.w3.org/Graphics/SVG/1.1/DTD/svg11.dtd">
<!-- Creator: CorelDRAW X7 -->
<svg xmlns="http://www.w3.org/2000/svg" xml:space="preserve" width="161.919mm" height="161.914mm" version="1.1" style="shape-rendering:geometricPrecision; text-rendering:geometricPrecision; image-rendering:optimizeQuality; fill-rule:evenodd; clip-rule:evenodd"
viewBox="0 0 12591 12590"
 xmlns:xlink="http://www.w3.org/1999/xlink">
 <defs>
  <style type="text/css">
   <![CDATA[
    .fil0 {fill:#F7B234}
   ]]>
  </style>
 </defs>
 <g id="Capa_x0020_1">
  <metadata id="CorelCorpID_0Corel-Layer"/>
  <g id="_397719845952">
   <g>
    <path class="fil0" d="M7340 6295l5034 -5034c289,-289 289,-756 0,-1044 -288,-289 -756,-289 -1044,0l-5034 5033 -5035 -5033c-288,-289 -757,-289 -1045,0 -288,288 -288,755 0,1044l5035 5034 -5035 5034c-288,289 -288,757 0,1045 144,144 334,216 522,216 190,0 378,-72 523,-216l5034 -5034 5034 5034c144,144 334,216 522,216 189,0 379,-72 523,-216 288,-289 288,-756 0,-1045l-5034 -5034z"/>
   </g>
   <g>
   </g>
   <g>
   </g>
   <g>
   </g>
   <g>
   </g>
   <g>
   </g>
   <g>
   </g>
   <g>
   </g>
   <g>
   </g>
   <g>
   </g>
   <g>
   </g>
   <g>
   </g>
   <g>
   </g>
   <g>
   </g>
   <g>
   </g>
   <g>
   </g>
  </g>
 </g>
</svg>
