<?xml version="1.0" encoding="iso-8859-1"?>
<!-- Generator: Adobe Illustrator 16.0.0, SVG Export Plug-In . SVG Version: 6.00 Build 0)  -->
<!DOCTYPE svg PUBLIC "-//W3C//DTD SVG 1.1//EN" "http://www.w3.org/Graphics/SVG/1.1/DTD/svg11.dtd">
<svg version="1.1" id="Capa_1" xmlns="http://www.w3.org/2000/svg" xmlns:xlink="http://www.w3.org/1999/xlink" x="0px" y="0px"
	 width="612px" height="612px" viewBox="0 0 612 612" style="enable-background:new 0 0 612 612;" xml:space="preserve">
<g>
	<g id="Shape_353">
		<g>
			<path d="M61.2,448.805h489.6c11.261,0,20.4-9.16,20.4-20.41v-285.6c0-11.271-9.14-20.4-20.4-20.4H61.2
				c-11.271,0-20.4,9.129-20.4,20.41v285.6C40.8,439.645,49.929,448.805,61.2,448.805z M61.2,152.995c0-5.641,4.569-10.2,10.2-10.2
				h469.2c5.631,0,10.2,4.56,10.2,10.2v265.201c0,5.619-4.569,10.209-10.2,10.209H71.4c-5.63,0-10.2-4.59-10.2-10.209V152.995z
				 M601.8,469.215H10.2c-5.63,0-10.2,4.559-10.2,10.18c0,5.641,4.57,10.211,10.2,10.211h591.6c5.631,0,10.2-4.57,10.2-10.211
				C612,473.773,607.431,469.215,601.8,469.215z"/>
		</g>
	</g>
</g>
<g>
</g>
<g>
</g>
<g>
</g>
<g>
</g>
<g>
</g>
<g>
</g>
<g>
</g>
<g>
</g>
<g>
</g>
<g>
</g>
<g>
</g>
<g>
</g>
<g>
</g>
<g>
</g>
<g>
</g>
</svg>
