<?xml version="1.0" encoding="UTF-8"?>
<!DOCTYPE svg PUBLIC "-//W3C//DTD SVG 1.1//EN" "http://www.w3.org/Graphics/SVG/1.1/DTD/svg11.dtd">
<!-- Creator: CorelDRAW X7 -->
<svg xmlns="http://www.w3.org/2000/svg" xml:space="preserve" width="107.658mm" height="119.631mm" version="1.1" style="shape-rendering:geometricPrecision; text-rendering:geometricPrecision; image-rendering:optimizeQuality; fill-rule:evenodd; clip-rule:evenodd"
viewBox="0 0 2271 2523"
 xmlns:xlink="http://www.w3.org/1999/xlink"
 enable-background="new 0 0 512 512">
 <defs>
  <style type="text/css">
   <![CDATA[
    .fil0 {fill:#FEFEFE}
   ]]>
  </style>
 </defs>
 <g id="Capa_x0020_1">
  <metadata id="CorelCorpID_0Corel-Layer"/>
  <g id="_896849274048">
   <g>
    <path class="fil0" d="M1278 1013c0,-48 -38,-86 -86,-86 -113,0 -171,-63 -246,-143 -52,-56 -107,-114 -184,-151l-113 -53 -44 -38c-3,-2 -8,-2 -11,1l-69 70c-3,3 -2,7 -2,7l67 454c1,3 0,6 -2,9l-64 78c-2,3 -5,4 -9,4 -3,0 -6,-1 -8,-4l-64 -78c-2,-3 -3,-6 -3,-9l68 -454c0,0 1,-4 -2,-7l-70 -70c-3,-3 -7,-3 -10,-1l-44 38 -119 56c-174,88 -205,333 -240,616 -7,54 -14,109 -22,165 -7,47 26,91 73,98 4,0 8,1 13,1 42,0 79,-31 85,-74 9,-57 16,-114 23,-169 13,-103 26,-208 46,-295l0 368c0,47 17,89 44,124l0 937c0,58 46,104 104,104 58,0 104,-46 104,-104l0 -826c8,0 15,1 22,1 8,0 15,-1 22,-1l0 826c0,58 47,104 105,104 57,0 104,-46 104,-104l0 -937c27,-35 43,-77 43,-124l0 -476c10,11 20,21 31,32 82,88 184,198 372,198 48,0 86,-39 86,-87z"/>
    <path class="fil0" d="M515 535c127,0 221,-118 224,-316 1,-137 -64,-219 -224,-219 -159,0 -224,82 -223,219 2,198 97,316 223,316z"/>
    <path class="fil0" d="M1630 1769c-77,-35 -103,-52 -103,-85 0,-25 25,-49 80,-49 32,0 51,10 55,15l0 15c0,35 29,64 65,64l14 0c36,0 65,-29 65,-64l0 -26c0,-80 -65,-123 -135,-139l0 -20c0,-36 -29,-65 -65,-65l-14 0c-36,0 -65,29 -65,65l0 24c-87,26 -145,96 -145,181 0,130 107,179 185,214 75,35 108,54 108,94 0,39 -30,65 -76,65 -57,0 -90,-41 -102,-59 -10,-15 -26,-25 -43,-28 -18,-3 -36,1 -51,12l-11 10c-27,20 -34,58 -15,87 19,27 67,87 150,110l0 22c0,36 29,65 65,65l14 0c36,0 65,-29 65,-65l0 -22c98,-29 149,-116 149,-199 0,-136 -110,-186 -190,-222z"/>
    <path class="fil0" d="M1593 1168c-373,0 -677,304 -677,678 0,373 304,677 677,677 374,0 678,-304 678,-677 0,-374 -304,-678 -678,-678zm0 1198c-286,0 -520,-233 -520,-520 0,-287 234,-520 520,-520 287,0 520,233 520,520 0,287 -233,520 -520,520z"/>
   </g>
  </g>
 </g>
</svg>
