<?xml version="1.0" encoding="UTF-8"?>
<!DOCTYPE svg PUBLIC "-//W3C//DTD SVG 1.1//EN" "http://www.w3.org/Graphics/SVG/1.1/DTD/svg11.dtd">
<!-- Creator: CorelDRAW X7 -->
<svg xmlns="http://www.w3.org/2000/svg" xml:space="preserve" width="37.1959mm" height="27.8854mm" version="1.1" style="shape-rendering:geometricPrecision; text-rendering:geometricPrecision; image-rendering:optimizeQuality; fill-rule:evenodd; clip-rule:evenodd"
viewBox="0 0 4361 3270"
 xmlns:xlink="http://www.w3.org/1999/xlink">
 <defs>
  <style type="text/css">
   <![CDATA[
    .fil0 {fill:white}
   ]]>
  </style>
 </defs>
 <g id="Capa_x0020_1">
  <metadata id="CorelCorpID_0Corel-Layer"/>
  <path class="fil0" d="M2817 2669c30,-39 70,-68 115,-86 -55,-95 -86,-204 -87,-315 0,-13 0,-27 1,-40l-166 -66 -146 -124c-39,-32 -96,-30 -132,6l-203 202 -204 -202c-36,-36 -93,-38 -132,-6l-146 124 -626 249c-201,80 -201,793 -218,859l1714 0c-25,-36 -41,-78 -47,-123 -8,-72 12,-143 56,-199l221 -279zm-178 -779l17 -7 138 -116c37,-31 90,-29 124,5l99 98c-4,5 -8,10 -12,15 -63,80 -103,172 -120,267l-8 -3 -153 -61 -135 -115 0 0c-8,-7 -17,-13 -26,-18 27,-19 52,-41 76,-65zm1424 192l92 37c190,75 190,748 206,810l-781 0c-1,-14 -3,-27 -4,-41l-4 -27c17,-2 33,-5 49,-9 129,-30 250,-103 338,-215l1 0c103,-132 144,-293 126,-447 -5,-37 -12,-73 -23,-108zm-364 -1118c-20,365 -170,614 -380,712 -28,8 -56,18 -83,30 -40,10 -82,15 -125,15 -110,0 -211,-34 -297,-98 45,-108 76,-235 89,-377 70,-32 128,-70 171,-111 61,-58 94,-125 94,-197 0,-63 -25,-122 -72,-175 5,0 10,0 14,0 170,0 331,-31 452,-89 92,-43 155,-98 185,-160 124,58 198,133 198,215 0,92 -94,175 -246,235zm-177 -375c-109,52 -255,80 -412,80 -50,0 -100,-3 -147,-8 -17,-10 -35,-19 -54,-28l-7 -3 2 -4 -40 -14 -6 -3c-32,-293 -112,-436 -210,-495 141,-264 400,13 462,13 80,0 481,-452 547,351 1,0 2,0 2,1 -22,39 -70,78 -137,110zm-1738 1326l-79 -32 -138 -116c-36,-31 -90,-29 -124,5l-192 191 -193 -191c-33,-34 -87,-36 -124,-5l-138 116 -590 236c-190,75 -190,748 -206,810l817 0c27,-244 87,-535 243,-597l612 -244 136 -115c8,-7 17,-13 26,-18 -17,-12 -34,-26 -50,-40zm-1121 -951c26,477 274,757 588,757 120,0 231,-41 324,-119 -41,-104 -69,-223 -81,-356 -70,-32 -128,-70 -171,-111 -60,-58 -94,-124 -94,-197l0 0c0,-64 26,-123 73,-175 -17,0 -34,0 -51,0 -170,0 -331,-31 -452,-89 -91,-43 -154,-98 -185,-160 -123,58 -198,133 -198,215 0,92 95,175 247,235zm176 -375c110,52 256,80 412,80 68,0 134,-5 196,-15 13,-7 27,-14 41,-21l7 -3 -2 -4 40 -14 6 -3c29,-267 98,-409 184,-476 -139,-295 -409,-6 -472,-6 -79,0 -481,-452 -547,351 -1,0 -1,0 -2,1 23,39 70,78 137,110zm2967 1262c-226,-179 -555,-140 -734,86 -153,195 -146,466 4,652l-75 95c-35,6 -69,25 -93,56l-221 279c-53,67 -41,165 26,217 67,53 164,42 217,-25l221 -279c24,-31 35,-68 33,-105l74 -94c216,102 481,46 635,-149 178,-226 139,-555 -87,-733zm-35 637c-125,160 -357,187 -516,61 -159,-125 -187,-357 -61,-516 125,-159 357,-186 516,-61 159,126 187,357 61,516zm-2196 -1301c28,506 291,803 624,803 332,0 595,-297 623,-802 161,-64 261,-152 261,-250 0,-87 -79,-166 -210,-228 -32,66 -99,124 -195,170 -129,61 -299,95 -479,95 -180,0 -351,-34 -479,-95 -97,-46 -164,-104 -196,-170 -131,62 -210,141 -210,228 0,97 100,186 261,249zm187 -397c116,55 271,85 437,85 165,0 320,-30 436,-85 71,-34 121,-75 145,-117 0,0 -1,-1 -2,-1 -70,-851 -495,-372 -579,-372 -85,0 -510,-479 -580,372 -1,0 -1,1 -2,1 24,42 74,83 145,117zm1720 2108c0,0 0,0 0,0 -63,0 -126,-9 -185,-27 -7,48 -26,94 -56,132l-211 267 494 0c-7,-30 -12,-194 -33,-372 -3,0 -6,0 -9,0z"/>
 </g>
</svg>
