<?xml version="1.0" encoding="UTF-8"?>
<!DOCTYPE svg PUBLIC "-//W3C//DTD SVG 1.1//EN" "http://www.w3.org/Graphics/SVG/1.1/DTD/svg11.dtd">
<!-- Creator: CorelDRAW X7 -->
<svg xmlns="http://www.w3.org/2000/svg" xml:space="preserve" width="12.6153mm" height="10.3286mm" version="1.1" style="shape-rendering:geometricPrecision; text-rendering:geometricPrecision; image-rendering:optimizeQuality; fill-rule:evenodd; clip-rule:evenodd"
viewBox="0 0 355 291"
 xmlns:xlink="http://www.w3.org/1999/xlink">
 <defs>
  <style type="text/css">
   <![CDATA[
    .fil0 {fill:#F7B234}
   ]]>
  </style>
 </defs>
 <g id="Capa_x0020_1">
  <metadata id="CorelCorpID_0Corel-Layer"/>
  <g id="_328400109552">
   <g>
    <path class="fil0" d="M353 154l-39 -35 0 -82c0,-4 -2,-7 -6,-7l-34 0c-1,0 -3,1 -4,2 -1,1 -2,3 -2,5l0 40 -83 -75c-3,-3 -7,-3 -9,0l-174 153c-2,2 -3,5 -1,7 1,3 4,4 7,4l38 -9 0 119c0,1 0,7 4,11 2,1 5,4 10,4 9,0 86,-1 86,-1 4,0 7,-2 7,-6l0 -71c0,-1 0,-3 1,-4 0,-1 2,-1 3,-1l35 0c2,0 4,0 5,2 1,1 1,3 1,3l0 71c0,1 1,3 2,4 1,2 3,2 5,2l84 0c6,0 9,-2 11,-4 5,-5 5,-11 5,-12l0 -119 42 10c3,1 6,-1 7,-3 1,-3 1,-6 -1,-8zm-72 -111l21 0 0 65 -21 -19 0 -46zm19 98c-2,-1 -4,0 -6,1 -1,1 -2,3 -2,5l0 127c0,1 -1,2 -1,3 0,0 -1,0 -2,0l-78 0 0 -63c0,-1 1,-8 -4,-13 -3,-3 -7,-6 -15,-6l-35 0c-7,0 -11,3 -13,5 -4,5 -4,12 -4,14l0 64c-19,0 -72,0 -80,0 0,0 0,0 0,0 0,0 0,0 0,0 -1,-1 -1,-1 -1,-2l0 -127c0,-2 -1,-4 -2,-5 -2,-1 -4,-2 -5,-1l-22 5 150 -133 88 80 0 0 0 0 58 52 -26 -6z"/>
   </g>
   <g>
   </g>
   <g>
   </g>
   <g>
   </g>
   <g>
   </g>
   <g>
   </g>
   <g>
   </g>
   <g>
   </g>
   <g>
   </g>
   <g>
   </g>
   <g>
   </g>
   <g>
   </g>
   <g>
   </g>
   <g>
   </g>
   <g>
   </g>
   <g>
   </g>
  </g>
 </g>
</svg>
