<?xml version="1.0" encoding="UTF-8"?>
<!DOCTYPE svg PUBLIC "-//W3C//DTD SVG 1.1//EN" "http://www.w3.org/Graphics/SVG/1.1/DTD/svg11.dtd">
<!-- Creator: CorelDRAW X7 -->
<svg xmlns="http://www.w3.org/2000/svg" xml:space="preserve" width="533.339mm" height="435.147mm" version="1.1" style="shape-rendering:geometricPrecision; text-rendering:geometricPrecision; image-rendering:optimizeQuality; fill-rule:evenodd; clip-rule:evenodd"
viewBox="0 0 42450 34635"
 xmlns:xlink="http://www.w3.org/1999/xlink">
 <defs>
  <style type="text/css">
   <![CDATA[
    .fil0 {fill:white}
   ]]>
  </style>
 </defs>
 <g id="Capa_x0020_1">
  <metadata id="CorelCorpID_0Corel-Layer"/>
  <g id="html10.svg">
   <g>
    <path class="fil0" d="M42442 6782l0 -6174c0,-336 -270,-608 -603,-608l-41237 0c-332,0 -602,272 -602,608l0 7959c0,43 4,84 12,124l0 25944 42438 0 0 -27853 -8 0zm-1512 26333l-39398 0 0 -23940 39398 0 0 23940zm-23670 -7893l-8016 -4129 0 -933 8016 -4128 0 1191 -6755 3386 0 35 6755 3386 0 1192zm16012 -4111l-8016 4111 0 -1192 6807 -3386 0 -34 -6807 -3386 0 -1192 8016 4111 0 968zm-14348 6975l-1333 0 5547 -14419 1353 0 -5567 14419z"/>
   </g>
   <g>
   </g>
   <g>
   </g>
   <g>
   </g>
   <g>
   </g>
   <g>
   </g>
   <g>
   </g>
   <g>
   </g>
   <g>
   </g>
   <g>
   </g>
   <g>
   </g>
   <g>
   </g>
   <g>
   </g>
   <g>
   </g>
   <g>
   </g>
   <g>
   </g>
  </g>
 </g>
</svg>
