<?xml version="1.0" encoding="UTF-8"?>
<!DOCTYPE svg PUBLIC "-//W3C//DTD SVG 1.1//EN" "http://www.w3.org/Graphics/SVG/1.1/DTD/svg11.dtd">
<!-- Creator: CorelDRAW X7 -->
<svg xmlns="http://www.w3.org/2000/svg" xml:space="preserve" width="28.2487mm" height="3.358mm" version="1.1" style="shape-rendering:geometricPrecision; text-rendering:geometricPrecision; image-rendering:optimizeQuality; fill-rule:evenodd; clip-rule:evenodd"
viewBox="0 0 2716 323"
 xmlns:xlink="http://www.w3.org/1999/xlink">
 <defs>
  <style type="text/css">
   <![CDATA[
    .fil2 {fill:lime}
    .fil3 {fill:#663333}
    .fil0 {fill:#F7B234}
    .fil4 {fill:red}
    .fil1 {fill:black;fill-rule:nonzero}
   ]]>
  </style>
 </defs>
 <g id="Capa_x0020_1">
  <metadata id="CorelCorpID_0Corel-Layer"/>
  <rect class="fil0" width="564" height="113"/>
  <polygon class="fil1" points="5,295 5,200 73,200 73,212 18,212 18,241 70,241 70,252 18,252 18,284 76,284 76,295 "/>
  <path id="1" class="fil1" d="M91 214l0 -14 12 0 0 14 -12 0zm-14 108l2 -10c2,0 4,1 5,1 3,0 4,-1 6,-3 1,-1 1,-5 1,-11l0 -73 12 0 0 73c0,8 -1,14 -3,17 -3,5 -8,7 -14,7 -3,0 -6,-1 -9,-1z"/>
  <path id="2" class="fil1" d="M168 273l12 1c-2,7 -6,13 -11,17 -5,4 -11,6 -19,6 -10,0 -18,-4 -24,-10 -6,-6 -9,-15 -9,-26 0,-11 3,-20 9,-26 6,-7 13,-10 23,-10 9,0 17,3 22,9 6,7 9,15 9,27 0,0 0,1 0,3l-51 0c0,7 2,13 6,17 4,4 9,6 15,6 4,0 7,-1 10,-3 3,-3 6,-6 8,-11zm-38 -19l38 0c-1,-6 -2,-10 -5,-13 -3,-4 -8,-6 -14,-6 -5,0 -10,1 -13,5 -4,3 -6,8 -6,14z"/>
  <path id="3" class="fil1" d="M239 270l12 2c-2,7 -5,14 -10,18 -5,4 -11,7 -19,7 -9,0 -17,-3 -23,-10 -5,-6 -8,-15 -8,-26 0,-7 1,-14 4,-19 2,-6 6,-10 11,-13 5,-3 10,-4 16,-4 8,0 14,2 18,6 5,3 8,9 10,16l-12 1c-1,-4 -3,-8 -5,-10 -3,-2 -7,-3 -10,-3 -6,0 -11,2 -15,6 -3,4 -5,11 -5,20 0,9 2,16 5,20 4,4 8,6 14,6 5,0 8,-1 11,-4 3,-3 5,-7 6,-13z"/>
  <path id="4" class="fil1" d="M305 295l0 -10c-5,8 -12,12 -21,12 -4,0 -8,-1 -12,-3 -3,-1 -6,-3 -8,-6 -1,-2 -2,-5 -3,-8 -1,-2 -1,-6 -1,-11l0 -43 12 0 0 38c0,7 0,11 1,13 0,3 2,5 4,7 3,2 5,3 9,3 3,0 7,-1 10,-3 3,-2 5,-4 6,-7 1,-4 2,-8 2,-14l0 -37 12 0 0 69 -11 0z"/>
  <path id="5" class="fil1" d="M379 270l11 2c-1,7 -4,14 -9,18 -5,4 -12,7 -19,7 -10,0 -17,-3 -23,-10 -6,-6 -8,-15 -8,-26 0,-7 1,-14 3,-19 3,-6 6,-10 11,-13 5,-3 11,-4 17,-4 7,0 13,2 18,6 5,3 8,9 9,16l-11 1c-1,-4 -3,-8 -6,-10 -3,-2 -6,-3 -10,-3 -6,0 -10,2 -14,6 -4,4 -6,11 -6,20 0,9 2,16 6,20 3,4 8,6 14,6 4,0 8,-1 11,-4 3,-3 5,-7 6,-13z"/>
  <path id="6" class="fil1" d="M400 214l0 -14 12 0 0 14 -12 0zm0 81l0 -69 12 0 0 69 -12 0z"/>
  <path id="7" class="fil1" d="M425 261c0,-13 4,-22 11,-28 6,-5 13,-8 21,-8 10,0 17,3 23,9 6,6 9,15 9,26 0,9 -1,16 -4,21 -2,5 -6,9 -11,11 -5,3 -11,5 -17,5 -9,0 -17,-3 -23,-10 -6,-6 -9,-15 -9,-26zm12 0c0,9 2,15 6,19 4,5 8,7 14,7 6,0 11,-2 15,-7 4,-4 6,-11 6,-20 0,-8 -2,-14 -6,-19 -4,-4 -9,-6 -15,-6 -6,0 -10,2 -14,6 -4,5 -6,11 -6,20zm11 -43l8 -18 15 0 -14 18 -9 0z"/>
  <path id="8" class="fil1" d="M503 295l0 -69 10 0 0 10c6,-7 13,-11 22,-11 4,0 8,1 12,2 3,2 6,4 7,6 2,2 3,5 4,9 0,2 1,6 1,11l0 42 -12 0 0 -42c0,-4 0,-8 -1,-10 -1,-3 -3,-4 -5,-6 -2,-1 -5,-2 -8,-2 -5,0 -9,2 -13,5 -4,3 -5,9 -5,18l0 37 -12 0z"/>
  <rect class="fil2" x="717" width="564" height="113"/>
  <polygon class="fil1" points="706,306 706,211 770,211 770,222 718,222 718,252 763,252 763,263 718,263 718,306 "/>
  <path id="1" class="fil1" d="M785 225l0 -14 11 0 0 14 -11 0zm0 81l0 -69 11 0 0 69 -11 0z"/>
  <path id="2" class="fil1" d="M814 306l0 -69 10 0 0 10c5,-7 13,-11 22,-11 4,0 8,1 12,2 3,2 6,4 7,6 2,2 3,5 4,9 0,2 1,6 1,11l0 42 -12 0 0 -42c0,-4 -1,-8 -1,-10 -1,-3 -3,-4 -5,-6 -3,-1 -5,-2 -8,-2 -5,0 -10,2 -13,5 -4,3 -5,9 -5,18l0 37 -12 0z"/>
  <path id="3" class="fil1" d="M932 297c-4,4 -8,7 -12,8 -4,2 -8,3 -13,3 -8,0 -13,-2 -17,-6 -5,-4 -7,-8 -7,-14 0,-3 1,-6 3,-9 1,-3 3,-5 6,-7 2,-2 5,-3 8,-4 2,0 6,-1 10,-1 10,-2 17,-3 21,-4 0,-2 0,-3 0,-3 0,-5 -1,-9 -3,-10 -3,-3 -7,-4 -13,-4 -6,0 -10,1 -12,3 -3,1 -5,5 -6,10l-12 -2c1,-5 3,-9 6,-12 2,-3 5,-5 10,-7 4,-1 10,-2 15,-2 6,0 11,1 15,2 3,1 6,3 8,5 2,2 3,5 4,8 0,2 0,6 0,11l0 15c0,11 0,18 1,21 0,3 1,5 3,8l-13 0c-1,-2 -1,-5 -2,-9zm-1 -25c-4,1 -10,3 -19,4 -5,1 -8,1 -10,2 -2,1 -3,2 -4,4 -2,2 -2,4 -2,6 0,3 1,5 3,7 3,2 6,3 11,3 4,0 8,-1 12,-3 3,-1 6,-4 7,-8 2,-2 2,-6 2,-11l0 -4z"/>
  <polygon id="4" class="fil1" points="961,306 961,211 972,211 972,306 "/>
  <path id="5" class="fil1" d="M990 225l0 -14 12 0 0 14 -12 0zm0 81l0 -69 12 0 0 69 -12 0z"/>
  <path id="6" class="fil1" d="M1014 306l0 -9 43 -51c-5,1 -9,1 -13,1l-28 0 0 -10 56 0 0 8 -37 44 -7 8c5,-1 10,-1 14,-1l32 0 0 10 -60 0z"/>
  <path id="7" class="fil1" d="M1131 297c-5,4 -9,7 -13,8 -4,2 -8,3 -13,3 -7,0 -13,-2 -17,-6 -4,-4 -6,-8 -6,-14 0,-3 1,-6 2,-9 2,-3 4,-5 6,-7 3,-2 5,-3 9,-4 2,0 5,-1 10,-1 9,-2 16,-3 21,-4 0,-2 0,-3 0,-3 0,-5 -1,-9 -4,-10 -3,-3 -7,-4 -13,-4 -5,0 -9,1 -12,3 -3,1 -5,5 -6,10l-11 -2c1,-5 3,-9 5,-12 2,-3 6,-5 10,-7 5,-1 10,-2 16,-2 6,0 11,1 14,2 4,1 7,3 8,5 2,2 3,5 4,8 0,2 0,6 0,11l0 15c0,11 1,18 1,21 1,3 2,5 3,8l-12 0c-1,-2 -2,-5 -2,-9zm-1 -25c-5,1 -11,3 -19,4 -5,1 -9,1 -11,2 -1,1 -3,2 -4,4 -1,2 -2,4 -2,6 0,3 1,5 4,7 2,2 6,3 10,3 5,0 9,-1 12,-3 4,-1 6,-4 8,-8 1,-2 2,-6 2,-11l0 -4z"/>
  <path id="8" class="fil1" d="M1204 306l0 -9c-5,7 -11,11 -20,11 -5,0 -10,-2 -15,-5 -4,-3 -8,-7 -10,-13 -3,-5 -4,-11 -4,-18 0,-7 1,-13 3,-19 3,-5 6,-10 11,-13 4,-3 9,-4 15,-4 4,0 8,1 11,3 3,1 6,4 8,6l0 -34 11 0 0 95 -10 0zm-37 -34c0,9 2,15 5,19 4,5 9,7 14,7 5,0 9,-2 13,-6 3,-4 5,-11 5,-19 0,-10 -2,-16 -6,-21 -3,-4 -8,-6 -13,-6 -5,0 -9,2 -13,6 -3,4 -5,11 -5,20z"/>
  <path id="9" class="fil1" d="M1229 272c0,-13 3,-22 10,-28 6,-5 13,-8 22,-8 9,0 17,3 23,9 6,6 9,15 9,26 0,9 -2,16 -4,21 -3,5 -7,9 -12,11 -5,3 -10,5 -16,5 -10,0 -18,-4 -24,-10 -6,-6 -8,-15 -8,-26zm11 0c0,9 2,15 6,19 4,5 9,7 15,7 5,0 10,-2 14,-7 4,-4 6,-11 6,-20 0,-8 -2,-14 -6,-19 -4,-4 -9,-6 -14,-6 -6,0 -11,2 -15,6 -4,4 -6,11 -6,20z"/>
  <rect class="fil3" x="1437" width="564" height="113"/>
  <path class="fil1" d="M1457 306l36 -95 14 0 38 95 -14 0 -11 -29 -40 0 -10 29 -13 0zm27 -39l32 0 -10 -26c-3,-8 -5,-15 -6,-20 -2,6 -4,12 -6,18l-10 28z"/>
  <path id="1" class="fil1" d="M1579 296l2 10c-4,1 -7,1 -9,1 -4,0 -8,-1 -10,-2 -2,-1 -4,-3 -5,-5 -1,-2 -1,-7 -1,-14l0 -40 -9 0 0 -9 9 0 0 -17 11 -7 0 24 12 0 0 9 -12 0 0 41c0,3 1,5 1,6 0,1 1,2 2,2 1,1 2,1 4,1 1,0 3,0 5,0z"/>
  <path id="2" class="fil1" d="M1590 306l0 -69 11 0 0 11c3,-5 5,-8 7,-10 3,-1 5,-2 8,-2 4,0 8,1 12,4l-4 10c-3,-1 -6,-2 -9,-2 -2,0 -5,1 -7,2 -2,2 -3,4 -4,7 -1,4 -2,8 -2,13l0 36 -12 0z"/>
  <path id="3" class="fil1" d="M1679 297c-4,4 -8,7 -12,8 -4,2 -8,3 -13,3 -7,0 -13,-2 -17,-6 -4,-4 -6,-8 -6,-14 0,-3 0,-6 2,-9 1,-3 3,-5 6,-7 2,-2 5,-3 8,-4 3,0 6,-1 11,-1 9,-2 16,-3 20,-4 0,-2 0,-3 0,-3 0,-5 -1,-9 -3,-10 -3,-3 -7,-4 -13,-4 -6,0 -10,1 -12,3 -3,1 -5,5 -6,10l-11 -2c1,-5 2,-9 5,-12 2,-3 6,-5 10,-7 4,-1 10,-2 16,-2 5,0 10,1 14,2 4,1 6,3 8,5 2,2 3,5 4,8 0,2 0,6 0,11l0 15c0,11 0,18 1,21 0,3 1,5 3,8l-12 0c-2,-2 -2,-5 -3,-9zm-1 -25c-4,1 -10,3 -19,4 -4,1 -8,1 -10,2 -2,1 -3,2 -4,4 -1,2 -2,4 -2,6 0,3 1,5 4,7 2,2 5,3 10,3 4,0 8,-1 12,-3 3,-1 6,-4 8,-8 1,-2 1,-6 1,-11l0 -4z"/>
  <path id="4" class="fil1" d="M1703 286l12 -2c1,4 2,8 5,10 3,3 7,4 13,4 5,0 9,-1 12,-3 2,-2 4,-5 4,-8 0,-3 -2,-5 -4,-6 -2,-1 -6,-2 -12,-4 -8,-2 -14,-4 -18,-6 -3,-1 -5,-3 -7,-6 -2,-3 -3,-6 -3,-9 0,-3 1,-6 3,-9 1,-2 3,-5 5,-6 2,-2 5,-3 8,-4 3,-1 6,-1 10,-1 5,0 10,1 14,2 4,2 7,4 9,7 2,2 3,6 4,10l-12 2c0,-4 -2,-7 -4,-9 -2,-2 -6,-3 -10,-3 -6,0 -10,1 -12,3 -2,2 -3,4 -3,6 0,2 0,3 1,4 1,2 3,3 5,3 1,1 4,2 10,3 8,3 14,4 17,6 3,1 6,3 8,6 2,3 2,6 2,10 0,4 -1,7 -3,11 -2,3 -5,6 -10,8 -4,2 -9,3 -14,3 -9,0 -16,-2 -21,-6 -4,-4 -7,-9 -9,-16z"/>
  <path id="5" class="fil1" d="M1819 297c-4,4 -8,7 -12,8 -4,2 -9,3 -13,3 -8,0 -14,-2 -18,-6 -4,-4 -6,-8 -6,-14 0,-3 1,-6 3,-9 1,-3 3,-5 6,-7 2,-2 5,-3 8,-4 2,0 6,-1 10,-1 10,-2 17,-3 21,-4 0,-2 0,-3 0,-3 0,-5 -1,-9 -3,-10 -3,-3 -8,-4 -13,-4 -6,0 -10,1 -13,3 -2,1 -4,5 -5,10l-12 -2c1,-5 3,-9 5,-12 3,-3 6,-5 11,-7 4,-1 9,-2 15,-2 6,0 11,1 15,2 3,1 6,3 8,5 1,2 3,5 3,8 1,2 1,6 1,11l0 15c0,11 0,18 1,21 0,3 1,5 2,8l-12 0c-1,-2 -2,-5 -2,-9zm-1 -25c-4,1 -10,3 -19,4 -5,1 -8,1 -10,2 -2,1 -4,2 -5,4 -1,2 -1,4 -1,6 0,3 1,5 3,7 3,2 6,3 11,3 4,0 8,-1 11,-3 4,-1 7,-4 8,-8 1,-2 2,-6 2,-11l0 -4z"/>
  <path id="6" class="fil1" d="M1892 306l0 -9c-4,7 -11,11 -19,11 -6,0 -11,-2 -15,-5 -5,-3 -8,-7 -11,-13 -2,-5 -4,-11 -4,-18 0,-7 2,-13 4,-19 2,-5 6,-10 10,-13 5,-3 10,-4 15,-4 4,0 8,1 11,3 4,1 6,4 8,6l0 -34 12 0 0 95 -11 0zm-37 -34c0,9 2,15 6,19 4,5 8,7 13,7 5,0 9,-2 13,-6 4,-4 5,-11 5,-19 0,-10 -1,-16 -5,-21 -4,-4 -8,-6 -14,-6 -5,0 -9,2 -13,6 -3,4 -5,11 -5,20z"/>
  <path id="7" class="fil1" d="M1917 272c0,-13 3,-22 11,-28 5,-5 13,-8 21,-8 10,0 17,3 23,9 6,6 9,15 9,26 0,9 -1,16 -4,21 -2,5 -6,9 -11,11 -5,3 -11,5 -17,5 -9,0 -17,-4 -23,-10 -6,-6 -9,-15 -9,-26zm12 0c0,9 2,15 6,19 3,5 8,7 14,7 6,0 11,-2 15,-7 3,-4 5,-11 5,-20 0,-8 -2,-14 -5,-19 -4,-4 -9,-6 -15,-6 -6,0 -11,2 -14,6 -4,4 -6,11 -6,20z"/>
  <rect class="fil4" x="2152" width="564" height="113"/>
  <polygon class="fil1" points="2210,295 2210,200 2223,200 2273,275 2273,200 2285,200 2285,295 2272,295 2222,221 2222,295 "/>
  <path id="1" class="fil1" d="M2351 273l12 1c-2,7 -5,13 -10,17 -5,4 -12,6 -20,6 -10,0 -18,-4 -24,-10 -6,-6 -8,-15 -8,-26 0,-11 2,-20 8,-26 6,-7 14,-10 23,-10 10,0 17,3 23,9 6,7 9,15 9,27 0,0 0,1 0,3l-52 0c1,7 3,13 7,17 4,4 8,6 14,6 4,0 8,-1 11,-3 3,-3 5,-6 7,-11zm-38 -19l38 0c0,-6 -2,-10 -4,-13 -4,-4 -9,-6 -14,-6 -6,0 -10,1 -14,5 -4,3 -6,8 -6,14z"/>
  <path id="2" class="fil1" d="M2376 301l11 1c0,4 2,6 4,8 3,2 7,3 12,3 5,0 9,-1 12,-3 3,-2 5,-5 6,-9 1,-2 1,-7 1,-15 -5,6 -11,9 -19,9 -9,0 -17,-3 -22,-10 -5,-7 -8,-15 -8,-25 0,-6 2,-12 4,-18 2,-5 6,-9 10,-12 5,-3 10,-5 16,-5 8,0 15,3 20,10l0 -9 11 0 0 60c0,10 -1,18 -3,22 -3,5 -6,8 -11,11 -4,3 -10,4 -17,4 -8,0 -15,-2 -20,-6 -5,-3 -7,-9 -7,-16zm9 -41c0,9 2,15 6,19 3,4 8,6 13,6 5,0 10,-2 14,-6 3,-4 5,-10 5,-19 0,-8 -2,-15 -6,-19 -3,-4 -8,-6 -13,-6 -5,0 -10,2 -13,6 -4,4 -6,10 -6,19z"/>
  <path id="3" class="fil1" d="M2496 287c-4,3 -8,6 -12,7 -4,2 -8,3 -13,3 -8,0 -13,-2 -17,-6 -5,-4 -7,-8 -7,-14 0,-3 1,-6 3,-9 1,-3 3,-5 6,-7 2,-2 5,-3 8,-4 2,0 6,-1 11,-1 9,-2 16,-3 20,-4 0,-2 0,-3 0,-3 0,-5 -1,-8 -3,-10 -3,-3 -7,-4 -13,-4 -6,0 -10,1 -12,3 -3,1 -5,5 -6,10l-12 -2c1,-5 3,-9 6,-12 2,-3 5,-5 10,-7 4,-1 10,-2 15,-2 6,0 11,1 15,2 3,1 6,3 8,5 2,2 3,5 4,8 0,2 0,6 0,11l0 15c0,11 0,18 1,21 0,3 1,5 3,8l-12 0c-2,-2 -2,-5 -3,-8zm-1 -26c-4,1 -10,3 -19,4 -5,1 -8,2 -10,2 -2,1 -3,3 -4,4 -2,2 -2,4 -2,6 0,3 1,5 3,7 3,2 6,3 11,3 4,0 8,-1 12,-2 3,-2 6,-5 7,-8 2,-3 2,-7 2,-12l0 -4z"/>
  <path id="4" class="fil1" d="M2569 295l0 -9c-4,7 -10,11 -19,11 -5,0 -10,-2 -15,-5 -5,-3 -8,-7 -11,-13 -2,-5 -3,-11 -3,-18 0,-7 1,-13 3,-19 2,-5 6,-10 10,-13 5,-2 10,-4 16,-4 4,0 7,1 11,3 3,1 5,4 7,6l0 -34 12 0 0 95 -11 0zm-36 -34c0,9 1,15 5,20 4,4 8,6 13,6 5,0 10,-2 13,-6 4,-4 6,-11 6,-19 0,-9 -2,-16 -6,-21 -4,-4 -8,-6 -13,-6 -5,0 -10,2 -13,6 -4,4 -5,11 -5,20z"/>
  <path id="5" class="fil1" d="M2594 261c0,-13 4,-22 11,-28 6,-5 13,-8 21,-8 10,0 17,3 23,9 6,6 9,15 9,26 0,9 -1,16 -4,21 -2,5 -6,9 -11,11 -5,3 -11,5 -17,5 -9,0 -17,-3 -23,-10 -6,-6 -9,-15 -9,-26zm12 0c0,9 2,15 6,19 4,5 8,7 14,7 6,0 11,-2 15,-7 4,-4 6,-11 6,-20 0,-8 -2,-14 -6,-19 -4,-4 -9,-6 -15,-6 -6,0 -10,2 -14,6 -4,5 -6,11 -6,20z"/>
 </g>
</svg>
