<?xml version="1.0" encoding="UTF-8"?>
<!DOCTYPE svg PUBLIC "-//W3C//DTD SVG 1.1//EN" "http://www.w3.org/Graphics/SVG/1.1/DTD/svg11.dtd">
<!-- Creator: CorelDRAW X7 -->
<svg xmlns="http://www.w3.org/2000/svg" xml:space="preserve" width="23.6001mm" height="9.2031mm" version="1.1" style="shape-rendering:geometricPrecision; text-rendering:geometricPrecision; image-rendering:optimizeQuality; fill-rule:evenodd; clip-rule:evenodd"
viewBox="0 0 2065 805"
 xmlns:xlink="http://www.w3.org/1999/xlink"
 enable-background="new 0 0 512 512">
 <defs>
  <style type="text/css">
   <![CDATA[
    .fil3 {fill:#FEFEFE}
    .fil2 {fill:#F7B234}
    .fil0 {fill:#FEFEFE;fill-rule:nonzero}
    .fil1 {fill:#F7B234;fill-rule:nonzero}
   ]]>
  </style>
 </defs>
 <g id="Capa_x0020_1">
  <metadata id="CorelCorpID_0Corel-Layer"/>
  <path class="fil0" d="M126 384c4,4 10,8 16,14 7,6 14,12 23,18 12,8 25,14 37,19 13,5 25,7 39,7 13,0 23,-1 32,-4 8,-3 15,-7 20,-11 5,-5 8,-11 11,-17 2,-6 3,-12 3,-19 0,-8 -3,-15 -9,-21 -6,-6 -13,-11 -21,-16 -9,-5 -18,-9 -27,-12 -9,-3 -17,-6 -23,-8 -30,-11 -56,-22 -78,-34 -22,-12 -41,-25 -56,-40 -15,-15 -26,-31 -33,-48 -7,-18 -11,-38 -11,-59 0,-23 5,-44 14,-63 9,-19 22,-35 40,-48 17,-13 37,-24 62,-31 24,-7 51,-11 81,-11 22,0 44,2 65,8 20,5 40,13 60,24 9,5 17,10 24,15 8,5 14,11 20,16 6,5 10,9 14,14 3,4 5,8 5,11 0,3 -1,6 -3,9 -1,3 -4,6 -7,9l-57 61c-4,4 -8,6 -12,6 -4,0 -7,-1 -10,-3 -2,-2 -6,-4 -9,-7l-3 -3c-5,-5 -11,-9 -17,-13 -6,-5 -12,-9 -19,-12 -7,-4 -15,-7 -22,-9 -8,-3 -16,-4 -24,-4 -8,0 -15,1 -23,2 -7,2 -13,4 -18,7 -6,3 -10,7 -13,11 -4,5 -5,11 -5,18 0,7 2,13 5,18 3,5 9,10 16,14 6,4 15,9 25,12 11,4 22,8 36,13 26,8 50,18 72,27 23,10 42,21 58,34 16,13 28,28 37,46 9,18 14,40 14,66 0,27 -6,52 -17,74 -11,22 -26,41 -46,57 -19,15 -42,27 -68,36 -27,8 -55,13 -85,13 -28,0 -56,-5 -83,-16 -28,-10 -53,-24 -77,-41 -10,-7 -18,-14 -25,-21 -7,-7 -12,-12 -16,-17l-1 -1c-1,0 -1,-1 -1,-1 0,0 -1,0 -1,0 0,-1 0,-1 -1,-1 0,0 0,-1 0,-1 -6,-6 -9,-11 -9,-15 0,-4 3,-9 9,-14l64 -61c5,-4 9,-5 12,-5 3,0 5,0 7,2 3,1 6,3 9,6z"/>
  <path id="1" class="fil0" d="M962 52c4,2 7,6 9,9 2,4 2,9 -1,15l-62 88c-3,5 -6,7 -9,8 -3,0 -7,-1 -11,-4 -12,-9 -26,-16 -40,-21 -15,-5 -30,-7 -47,-7 -20,0 -39,4 -56,11 -17,8 -31,19 -44,32 -12,13 -22,29 -28,47 -7,17 -11,36 -11,57 0,20 4,39 11,56 6,18 16,34 28,47 13,13 27,23 44,31 17,8 36,12 56,12 17,0 32,-3 47,-8 15,-5 28,-12 40,-21 5,-3 9,-4 12,-4 2,1 5,3 8,7l64 91c2,6 3,10 1,14 -2,4 -5,7 -9,9 -24,16 -49,28 -75,36 -27,9 -55,13 -85,13 -26,0 -51,-3 -75,-10 -24,-6 -47,-16 -68,-28 -21,-13 -40,-27 -57,-45 -18,-17 -32,-36 -45,-57 -12,-20 -22,-43 -28,-67 -7,-24 -10,-49 -10,-76 0,-26 3,-51 10,-75 6,-24 16,-47 28,-68 13,-21 27,-40 45,-57 17,-18 36,-32 57,-45 21,-12 44,-21 68,-28 24,-7 49,-10 75,-10 30,0 58,4 84,12 26,8 51,20 74,36z"/>
  <path id="2" class="fil0" d="M1065 28c0,-4 2,-8 4,-11 3,-4 7,-5 13,-5l109 0c4,0 8,1 12,4 4,3 6,7 6,12l0 518c0,11 -6,16 -18,16l-109 0c-11,0 -17,-5 -17,-16l0 -518z"/>
  <path class="fil1" d="M0 770l14 -8c10,18 21,27 34,27 6,0 11,-1 16,-4 5,-2 8,-6 11,-10 2,-4 4,-9 4,-14 0,-5 -2,-11 -6,-16 -5,-7 -15,-16 -28,-27 -14,-10 -23,-17 -26,-22 -6,-8 -9,-16 -9,-25 0,-7 2,-14 5,-20 4,-6 9,-10 15,-14 6,-3 13,-5 20,-5 8,0 15,2 22,6 7,4 14,11 22,21l-14 10c-6,-8 -11,-13 -16,-16 -4,-2 -9,-4 -14,-4 -7,0 -12,2 -16,6 -5,4 -7,9 -7,15 0,4 1,7 3,11 1,3 4,7 8,11 2,2 9,7 21,16 14,10 24,20 30,28 5,8 7,16 7,25 0,12 -4,22 -13,31 -9,9 -20,13 -33,13 -10,0 -19,-3 -27,-8 -9,-5 -16,-14 -23,-27z"/>
  <polygon id="1" class="fil1" points="213,636 307,636 307,652 229,652 229,704 306,704 306,720 229,720 229,785 306,785 306,801 213,801 "/>
  <path id="2" class="fil1" d="M484 636l77 165 -18 0 -26 -54 -71 0 -26 54 -18 0 78 -165 4 0zm-2 35l-29 60 57 0 -28 -60z"/>
  <path id="3" class="fil1" d="M668 636l33 0c18,0 31,1 37,3 10,2 18,7 24,14 6,7 9,16 9,27 0,9 -2,17 -6,24 -4,6 -10,12 -18,15 -8,4 -19,5 -33,5l59 77 -20 0 -59 -77 -9 0 0 77 -17 0 0 -165zm17 16l0 56 28 1c11,0 19,-1 24,-4 6,-2 10,-5 13,-10 3,-4 4,-9 4,-15 0,-5 -1,-10 -4,-15 -3,-5 -7,-8 -12,-10 -5,-2 -13,-3 -24,-3l-29 0z"/>
  <path id="4" class="fil1" d="M1041 667l-13 10c-7,-10 -16,-17 -26,-21 -10,-5 -21,-8 -33,-8 -13,0 -25,3 -36,10 -12,6 -20,15 -26,25 -7,11 -10,23 -10,36 0,20 7,37 21,50 14,14 31,20 52,20 23,0 42,-9 58,-27l13 10c-8,11 -19,19 -31,25 -12,5 -26,8 -41,8 -29,0 -52,-10 -68,-29 -14,-16 -21,-35 -21,-58 0,-24 8,-45 25,-61 17,-17 38,-25 64,-25 15,0 29,3 41,9 13,6 23,15 31,26z"/>
  <polygon id="5" class="fil1" points="1155,636 1171,636 1171,705 1255,705 1255,636 1272,636 1272,801 1255,801 1255,721 1171,721 1171,801 1155,801 "/>
  <circle class="fil2" cx="1665" cy="402" r="399"/>
  <g id="_896648211056">
   <path class="fil3" d="M1840 227c-32,-31 -74,-49 -119,-49 0,0 0,0 0,0 -45,0 -87,18 -119,49 -32,32 -50,75 -50,120 0,30 9,60 24,86l-123 122c-8,8 -12,18 -12,29 0,11 4,21 12,29l2 2c7,7 18,12 28,12 11,0 22,-5 29,-12l123 -123c26,15 55,23 86,23 45,0 87,-17 119,-49 32,-32 50,-74 50,-119 0,-45 -18,-88 -50,-120zm-348 367c-3,2 -5,3 -9,3 -3,0 -6,-1 -8,-3l-1 -2c-3,-2 -4,-5 -4,-8 0,-3 1,-6 4,-8l119 -119c3,3 6,6 9,9 3,3 6,6 9,9l-119 119zm328 -149c-27,27 -62,41 -99,41 -37,0 -72,-14 -99,-41 -26,-26 -41,-61 -41,-98 0,-38 15,-73 41,-99 27,-26 62,-41 99,-41 37,0 72,15 99,41 26,26 41,61 41,99 0,37 -15,72 -41,98z"/>
  </g>
 </g>
</svg>
