<?xml version="1.0" encoding="iso-8859-1"?>
<!-- Generator: Adobe Illustrator 16.0.0, SVG Export Plug-In . SVG Version: 6.00 Build 0)  -->
<!DOCTYPE svg PUBLIC "-//W3C//DTD SVG 1.1//EN" "http://www.w3.org/Graphics/SVG/1.1/DTD/svg11.dtd">
<svg version="1.1" id="Capa_1" xmlns="http://www.w3.org/2000/svg" xmlns:xlink="http://www.w3.org/1999/xlink" x="0px" y="0px"
	 width="101px" height="101px" viewBox="0 0 101 101" style="enable-background:new 0 0 101 101;" xml:space="preserve">
<g>
	<path d="M74.185,0h-47.37c-2.178,0-3.949,1.772-3.949,3.95v93.101c0,2.178,1.771,3.949,3.949,3.949h47.37
		c2.178,0,3.948-1.771,3.948-3.949V3.95C78.134,1.772,76.363,0,74.185,0z M46.627,92.5c0-2.14,1.732-3.875,3.873-3.875
		c2.144,0,3.873,1.735,3.873,3.875c0,2.141-1.729,3.875-3.873,3.875C48.359,96.375,46.627,94.641,46.627,92.5z M25.867,85.859
		V12.281h49.268v73.578H25.867z"/>
</g>
<g>
</g>
<g>
</g>
<g>
</g>
<g>
</g>
<g>
</g>
<g>
</g>
<g>
</g>
<g>
</g>
<g>
</g>
<g>
</g>
<g>
</g>
<g>
</g>
<g>
</g>
<g>
</g>
<g>
</g>
</svg>
