<?xml version="1.0" encoding="UTF-8"?>
<!DOCTYPE svg PUBLIC "-//W3C//DTD SVG 1.1//EN" "http://www.w3.org/Graphics/SVG/1.1/DTD/svg11.dtd">
<!-- Creator: CorelDRAW X7 -->
<svg xmlns="http://www.w3.org/2000/svg" xml:space="preserve" width="6.5462mm" height="12.6152mm" version="1.1" style="shape-rendering:geometricPrecision; text-rendering:geometricPrecision; image-rendering:optimizeQuality; fill-rule:evenodd; clip-rule:evenodd"
viewBox="0 0 700 1349"
 xmlns:xlink="http://www.w3.org/1999/xlink">
 <defs>
  <style type="text/css">
   <![CDATA[
    .fil0 {fill:#F7B234}
   ]]>
  </style>
 </defs>
 <g id="Capa_x0020_1">
  <metadata id="CorelCorpID_0Corel-Layer"/>
  <g id="_328400334656">
   <g>
    <g>
     <path class="fil0" d="M371 382c0,-31 14,-55 28,-78 18,-32 38,-64 24,-108 -13,-41 -39,-61 -62,-79 -30,-23 -52,-41 -41,-106l1 -5 -33 -6 -1 6c-15,85 22,113 54,138 21,16 40,31 50,62 9,30 -4,52 -21,80 -15,27 -33,57 -33,96 -167,1 -337,8 -337,600 0,268 215,367 350,367 135,0 350,-99 350,-367 0,-592 -174,-599 -329,-600zm-4 498l0 -73c20,-3 36,-22 36,-43l0 -219c0,-21 -16,-39 -36,-43l0 -86c138,0 266,6 294,394 -94,44 -193,67 -294,70zm2 -116c0,6 -5,11 -11,11l-16 0c-6,0 -11,-5 -11,-11l0 -219c0,-6 5,-11 11,-11l16 0c6,0 11,5 11,11l0 219zm-36 -262c-20,4 -36,22 -36,43l0 219c0,21 16,40 36,43l0 73c-154,-4 -266,-55 -294,-69 28,-389 157,-395 294,-395l0 86zm17 814c-122,0 -317,-91 -317,-334 0,-48 2,-94 4,-135 49,22 163,66 314,66 107,0 212,-22 312,-67 3,42 4,88 4,136 0,243 -195,334 -317,334z"/>
    </g>
   </g>
   <g>
   </g>
   <g>
   </g>
   <g>
   </g>
   <g>
   </g>
   <g>
   </g>
   <g>
   </g>
   <g>
   </g>
   <g>
   </g>
   <g>
   </g>
   <g>
   </g>
   <g>
   </g>
   <g>
   </g>
   <g>
   </g>
   <g>
   </g>
   <g>
   </g>
  </g>
 </g>
</svg>
