<?xml version="1.0" encoding="UTF-8"?>
<!DOCTYPE svg PUBLIC "-//W3C//DTD SVG 1.1//EN" "http://www.w3.org/Graphics/SVG/1.1/DTD/svg11.dtd">
<!-- Creator: CorelDRAW X7 -->
<svg xmlns="http://www.w3.org/2000/svg" xml:space="preserve" width="48.0128mm" height="48.0128mm" version="1.1" style="shape-rendering:geometricPrecision; text-rendering:geometricPrecision; image-rendering:optimizeQuality; fill-rule:evenodd; clip-rule:evenodd"
viewBox="0 0 3405 3405"
 xmlns:xlink="http://www.w3.org/1999/xlink">
 <defs>
  <style type="text/css">
   <![CDATA[
    .fil0 {fill:white}
   ]]>
  </style>
 </defs>
 <g id="Capa_x0020_1">
  <metadata id="CorelCorpID_0Corel-Layer"/>
  <g id="_397555147632">
   <g>
    <path class="fil0" d="M2270 1703c0,313 -254,567 -567,567 -314,0 -568,-254 -568,-567 0,-314 254,-568 568,-568 313,0 567,254 567,568zm1135 141l-434 0c-64,595 -532,1063 -1127,1127l0 434 -283 0 0 -434c-595,-64 -1062,-532 -1127,-1127l-434 0 0 -283 434 0c65,-595 532,-1062 1127,-1127l0 -434 283 0 0 434c595,65 1063,532 1127,1127l434 0 0 283zm-638 -141c0,-582 -483,-1065 -1064,-1065 -582,0 -1065,483 -1065,1065 0,581 483,1064 1065,1064 581,0 1064,-483 1064,-1064z"/>
   </g>
   <g>
   </g>
   <g>
   </g>
   <g>
   </g>
   <g>
   </g>
   <g>
   </g>
   <g>
   </g>
   <g>
   </g>
   <g>
   </g>
   <g>
   </g>
   <g>
   </g>
   <g>
   </g>
   <g>
   </g>
   <g>
   </g>
   <g>
   </g>
   <g>
   </g>
  </g>
 </g>
</svg>
