<?xml version="1.0" encoding="UTF-8"?>
<!DOCTYPE svg PUBLIC "-//W3C//DTD SVG 1.1//EN" "http://www.w3.org/Graphics/SVG/1.1/DTD/svg11.dtd">
<!-- Creator: CorelDRAW X7 -->
<svg xmlns="http://www.w3.org/2000/svg" xml:space="preserve" width="46.3972mm" height="12.6998mm" version="1.1" style="shape-rendering:geometricPrecision; text-rendering:geometricPrecision; image-rendering:optimizeQuality; fill-rule:evenodd; clip-rule:evenodd"
viewBox="0 0 4640 1270"
 xmlns:xlink="http://www.w3.org/1999/xlink"
 enable-background="new 0 0 512 512">
 <defs>
  <style type="text/css">
   <![CDATA[
    .str0 {stroke:#DBDBDB;stroke-width:25.39;stroke-dasharray:380.850000 279.290000}
    .fil0 {fill:none}
    .fil2 {fill:#A8A8A8}
    .fil1 {fill:#B0B0B0;fill-rule:nonzero}
   ]]>
  </style>
 </defs>
 <g id="Capa_x0020_1">
  <metadata id="CorelCorpID_0Corel-Layer"/>
  <rect class="fil0 str0" x="-46719" y="56" width="51265" height="12865"/>
  <path class="fil1" d="M-22271 4215l0 2273 -1185 0 2370 2273 2370 -2273 -1185 0 0 -2273 -2370 0zm0 1136m-593 1137m593 1136m2370 0m592 -1136m-592 -1137m-1185 -1136"/>
  <path class="fil1" d="M-26583 9845l108 0 217 563 -112 0 -44 -116 -231 0 -45 116 -111 0 218 -563zm54 150l-76 194 152 0 -76 -194z"/>
  <path id="1" class="fil1" d="M-26168 9845l114 0c62,0 106,6 133,17 26,11 48,29 64,55 16,26 24,56 24,92 0,37 -9,68 -27,93 -17,24 -44,43 -80,56l133 250 -117 0 -127 -238 -10 0 0 238 -107 0 0 -563zm107 221l34 0c34,0 58,-5 71,-14 13,-9 19,-24 19,-45 0,-12 -3,-23 -9,-32 -7,-9 -15,-16 -26,-19 -11,-5 -31,-7 -60,-7l-29 0 0 117z"/>
  <path id="2" class="fil1" d="M-25713 9845l114 0c62,0 106,6 133,17 26,11 48,29 64,55 16,26 24,56 24,92 0,37 -9,68 -27,93 -18,24 -44,43 -80,56l133 250 -117 0 -127 -238 -10 0 0 238 -107 0 0 -563zm107 221l34 0c34,0 58,-5 71,-14 13,-9 19,-24 19,-45 0,-12 -3,-23 -9,-32 -7,-9 -15,-16 -26,-19 -11,-5 -31,-7 -60,-7l-29 0 0 117z"/>
  <path id="3" class="fil1" d="M-25093 9845l108 0 217 563 -112 0 -44 -116 -231 0 -45 116 -111 0 218 -563zm54 150l-76 194 152 0 -76 -194z"/>
  <path id="4" class="fil1" d="M-24389 9922l-80 70c-28,-39 -56,-58 -85,-58 -14,0 -26,4 -35,11 -9,8 -13,16 -13,26 0,9 3,18 10,26 8,12 35,36 78,73 41,34 66,55 75,64 22,22 37,43 46,63 9,20 14,42 14,66 0,46 -16,84 -48,114 -32,30 -74,45 -125,45 -40,0 -75,-9 -105,-29 -30,-20 -56,-51 -77,-93l91 -54c27,50 58,74 93,74 19,0 34,-5 47,-16 12,-10 19,-23 19,-37 0,-12 -5,-25 -15,-38 -9,-13 -30,-32 -62,-59 -62,-50 -101,-88 -119,-115 -18,-27 -27,-55 -27,-82 0,-39 15,-72 44,-100 30,-28 67,-42 111,-42 28,0 55,7 80,20 25,13 53,36 83,71z"/>
  <polygon id="5" class="fil1" points="-24332,9845 -24021,9845 -24021,9951 -24124,9951 -24124,10408 -24233,10408 -24233,9951 -24332,9951 "/>
  <path id="6" class="fil1" d="M-23941 9845l114 0c62,0 107,6 133,17 27,11 48,29 64,55 16,26 24,56 24,92 0,37 -9,68 -26,93 -18,24 -45,43 -81,56l133 250 -117 0 -126 -238 -11 0 0 238 -107 0 0 -563zm107 221l34 0c34,0 58,-5 71,-14 13,-9 20,-24 20,-45 0,-12 -4,-23 -10,-32 -6,-9 -15,-16 -26,-19 -11,-5 -31,-7 -59,-7l-30 0 0 117z"/>
  <polygon id="7" class="fil1" points="-23492,9845 -23185,9845 -23185,9950 -23385,9950 -23385,10051 -23185,10051 -23185,10155 -23385,10155 -23385,10303 -23185,10303 -23185,10408 -23492,10408 "/>
  <polygon id="8" class="fil1" points="-22906,9845 -22791,9845 -22687,10047 -22582,9845 -22468,9845 -22633,10164 -22633,10408 -22741,10408 -22741,10164 "/>
  <path id="9" class="fil1" d="M-21864 9922l-79 70c-28,-39 -57,-58 -86,-58 -14,0 -25,4 -34,11 -9,8 -14,16 -14,26 0,9 4,18 10,26 9,12 35,36 79,73 41,34 66,55 74,64 22,22 37,43 47,63 9,20 13,42 13,66 0,46 -16,84 -48,114 -32,30 -73,45 -125,45 -40,0 -75,-9 -105,-29 -30,-20 -55,-51 -76,-93l90 -54c27,50 58,74 94,74 18,0 34,-5 46,-16 13,-10 19,-23 19,-37 0,-12 -5,-25 -14,-38 -10,-13 -30,-32 -63,-59 -61,-50 -101,-88 -119,-115 -18,-27 -27,-55 -27,-82 0,-39 15,-72 45,-100 30,-28 66,-42 110,-42 28,0 55,7 80,20 26,13 53,36 83,71z"/>
  <path id="10" class="fil1" d="M-21756 9845l108 0 0 365c0,31 2,53 8,66 5,13 14,23 27,31 13,8 28,12 46,12 19,0 35,-4 49,-13 13,-9 23,-20 28,-33 5,-14 8,-39 8,-77l0 -351 107 0 0 336c0,57 -3,96 -9,118 -7,22 -19,43 -37,63 -18,21 -38,36 -62,46 -23,9 -51,14 -82,14 -41,0 -76,-9 -106,-28 -31,-18 -52,-42 -65,-70 -13,-28 -20,-76 -20,-143l0 -336z"/>
  <polygon id="11" class="fil1" points="-21249,9845 -20941,9845 -20941,9950 -21142,9950 -21142,10051 -20941,10051 -20941,10155 -21142,10155 -21142,10303 -20941,10303 -20941,10408 -21249,10408 "/>
  <polygon id="12" class="fil1" points="-20843,9845 -20736,9845 -20736,10306 -20578,10306 -20578,10408 -20843,10408 "/>
  <polygon id="13" class="fil1" points="-20552,9845 -20240,9845 -20240,9951 -20343,9951 -20343,10408 -20452,10408 -20452,9951 -20552,9951 "/>
  <polygon id="14" class="fil1" points="-20167,9845 -19859,9845 -19859,9950 -20060,9950 -20060,10051 -19859,10051 -19859,10155 -20060,10155 -20060,10303 -19859,10303 -19859,10408 -20167,10408 "/>
  <polygon id="15" class="fil1" points="-19541,9845 -19434,9845 -19434,10306 -19276,10306 -19276,10408 -19541,10408 "/>
  <path id="16" class="fil1" d="M-19023 9845l108 0 217 563 -112 0 -43 -116 -231 0 -45 116 -112 0 218 -563zm54 150l-76 194 152 0 -76 -194z"/>
  <polygon id="17" class="fil1" points="-18403,9845 -18296,9845 -18296,10408 -18403,10408 "/>
  <polygon id="18" class="fil1" points="-18122,9845 -18018,9845 -17887,10238 -17755,9845 -17651,9845 -17557,10408 -17660,10408 -17720,10053 -17840,10408 -17934,10408 -18053,10053 -18114,10408 -18219,10408 "/>
  <path id="19" class="fil1" d="M-17298 9845l108 0 217 563 -112 0 -44 -116 -230 0 -45 116 -112 0 218 -563zm54 150l-76 194 152 0 -76 -194z"/>
  <path id="20" class="fil1" d="M-16369 9937l-76 75c-47,-51 -103,-76 -167,-76 -55,0 -101,18 -139,55 -37,37 -56,82 -56,134 0,54 20,100 58,138 39,38 87,57 144,57 37,0 68,-8 94,-24 25,-15 45,-40 61,-73l-163 0 0 -100 283 0 1 23c0,50 -13,96 -38,141 -26,44 -59,77 -100,101 -40,23 -88,34 -143,34 -58,0 -110,-12 -156,-38 -46,-25 -82,-61 -109,-108 -27,-47 -40,-98 -40,-152 0,-75 25,-139 74,-195 58,-65 135,-98 228,-98 49,0 95,9 138,27 36,16 71,42 106,79z"/>
  <polygon id="21" class="fil1" points="-16230,9845 -15923,9845 -15923,9950 -16124,9950 -16124,10051 -15923,10051 -15923,10155 -16124,10155 -16124,10303 -15923,10303 -15923,10408 -16230,10408 "/>
  <polygon id="22" class="fil1" points="-15822,9845 -15721,9845 -15478,10216 -15478,9845 -15371,9845 -15371,10408 -15474,10408 -15716,10039 -15716,10408 -15822,10408 "/>
  <g id="_896844007008">
   <g>
    <path class="fil2" d="M5647 -2564c0,-846 -220,-1431 -671,-1787 -452,-357 -1049,-403 -1519,-403l-5542 0c-470,0 -1067,46 -1520,403 -451,356 -670,941 -670,1787 0,816 414,1227 761,1428 169,98 353,164 533,207 -450,440 -719,1050 -719,1712l0 2596c0,1318 1072,2391 2391,2391l3990 0c1318,0 2391,-1073 2391,-2391l0 -2596c0,-662 -272,-1272 -721,-1711 181,-44 365,-109 535,-208 347,-201 761,-612 761,-1428zm-1237 3347l0 2596c0,953 -775,1729 -1729,1729l-3990 0c-954,0 -1730,-776 -1730,-1729l0 -2596c0,-753 484,-1403 1196,-1646 605,-207 902,-582 1147,-1003 249,-429 416,-692 718,-692l1328 0c301,0 450,275 718,692 548,851 1044,973 1048,974 762,198 1294,886 1294,1675zm144 -2491c-279,162 -642,196 -897,196 -231,0 -400,-28 -401,-28 -4,-1 -8,-2 -11,-2 -227,-31 -380,-269 -605,-656 -264,-455 -592,-1022 -1290,-1022l-1328 0c-698,0 -1027,567 -1291,1022 -224,387 -377,625 -604,656 -4,0 -8,1 -11,2 -2,0 -170,28 -401,28 -882,0 -1329,-354 -1329,-1052 0,-631 137,-1045 419,-1268 228,-180 571,-260 1110,-260l5542 0c991,0 1528,243 1528,1528 0,408 -141,688 -431,856z"/>
    <path class="fil2" d="M686 -52c-1194,0 -2165,972 -2165,2166 0,1193 971,2165 2165,2165 1194,0 2165,-972 2165,-2165 0,-1194 -971,-2166 -2165,-2166zm0 3669c-829,0 -1504,-674 -1504,-1503 0,-830 675,-1504 1504,-1504 829,0 1504,674 1504,1504 0,829 -675,1503 -1504,1503z"/>
   </g>
  </g>
 </g>
</svg>
