<?xml version="1.0" encoding="UTF-8"?>
<!DOCTYPE svg PUBLIC "-//W3C//DTD SVG 1.1//EN" "http://www.w3.org/Graphics/SVG/1.1/DTD/svg11.dtd">
<!-- Creator: CorelDRAW X7 -->
<svg xmlns="http://www.w3.org/2000/svg" xml:space="preserve" width="11.1629mm" height="12.4348mm" version="1.1" style="shape-rendering:geometricPrecision; text-rendering:geometricPrecision; image-rendering:optimizeQuality; fill-rule:evenodd; clip-rule:evenodd"
viewBox="0 0 6224 6933"
 xmlns:xlink="http://www.w3.org/1999/xlink">
 <defs>
  <style type="text/css">
   <![CDATA[
    .fil0 {fill:white}
   ]]>
  </style>
 </defs>
 <g id="Capa_x0020_1">
  <metadata id="CorelCorpID_0Corel-Layer"/>
  <g id="_398874136624">
   <g>
    <g id="Layer_1_9_">
     <g>
      <path class="fil0" d="M6224 315c0,-174 -141,-315 -315,-315l-5515 0c-174,0 -315,141 -315,315 0,117 63,217 157,272l0 3630c86,-78 189,-173 315,-288l0 -3299 5200 0 0 3467 -4061 0c-105,115 -202,220 -288,315l278 0 -567 2125c-44,168 56,340 224,385 167,45 341,-55 385,-223l568 -2130 1722 0 568 2130c38,141 165,234 304,234 27,0 54,-3 82,-11 168,-45 268,-218 223,-385l-567 -2125 1287 0c87,0 157,-71 157,-158l0 -3667c94,-55 158,-155 158,-272z"/>
      <path class="fil0" d="M3388 3506l0 -1182c0,-174 -142,-315 -315,-315 -174,0 -316,141 -316,315l0 1182c0,174 142,315 316,315 173,0 315,-141 315,-315z"/>
      <path class="fil0" d="M4412 3506l0 -2285c0,-174 -141,-315 -315,-315 -175,0 -315,141 -315,315l0 2285c0,174 141,315 315,315 174,0 315,-141 315,-315z"/>
      <path class="fil0" d="M5436 3506l0 -1655c0,-174 -141,-315 -315,-315 -174,0 -316,141 -316,315l0 1655c0,174 142,315 316,315 174,0 315,-141 315,-315z"/>
      <path class="fil0" d="M2288 2867c-30,-30 -78,-30 -108,0 0,0 -2110,1928 -2120,1939 -80,79 -80,209 0,289 80,81 210,81 290,0 10,-9 1938,-2119 1938,-2119 30,-30 30,-79 0,-109z"/>
     </g>
    </g>
   </g>
   <g>
   </g>
   <g>
   </g>
   <g>
   </g>
   <g>
   </g>
   <g>
   </g>
   <g>
   </g>
   <g>
   </g>
   <g>
   </g>
   <g>
   </g>
   <g>
   </g>
   <g>
   </g>
   <g>
   </g>
   <g>
   </g>
   <g>
   </g>
   <g>
   </g>
  </g>
 </g>
</svg>
