<?xml version="1.0" encoding="UTF-8"?>
<!DOCTYPE svg PUBLIC "-//W3C//DTD SVG 1.1//EN" "http://www.w3.org/Graphics/SVG/1.1/DTD/svg11.dtd">
<!-- Creator: CorelDRAW X7 -->
<svg xmlns="http://www.w3.org/2000/svg" xml:space="preserve" width="35.8701mm" height="35.8694mm" version="1.1" style="shape-rendering:geometricPrecision; text-rendering:geometricPrecision; image-rendering:optimizeQuality; fill-rule:evenodd; clip-rule:evenodd"
viewBox="0 0 3235 3235"
 xmlns:xlink="http://www.w3.org/1999/xlink"
 enable-background="new 0 0 216 146">
 <defs>
  <style type="text/css">
   <![CDATA[
    .fil0 {fill:white}
   ]]>
  </style>
 </defs>
 <g id="Capa_x0020_1">
  <metadata id="CorelCorpID_0Corel-Layer"/>
  <g id="search19.svg">
   <path class="fil0" d="M3163 2811l-667 -667c161,-232 241,-490 241,-775 0,-186 -36,-363 -107,-532 -72,-169 -170,-315 -292,-437 -123,-123 -268,-220 -437,-292 -170,-72 -347,-108 -532,-108 -186,0 -363,36 -532,108 -169,72 -315,169 -437,292 -123,122 -220,268 -292,437 -72,169 -108,346 -108,532 0,185 36,362 108,531 72,170 169,315 292,438 122,122 268,220 437,292 169,71 346,107 532,107 285,0 543,-80 775,-241l667 665c47,49 105,74 175,74 68,0 126,-25 175,-74 50,-49 74,-107 74,-175 0,-68 -24,-127 -72,-175zm-1179 -827c-170,170 -375,256 -615,256 -240,0 -445,-86 -616,-256 -170,-170 -255,-375 -255,-615 0,-240 85,-445 255,-616 171,-170 376,-255 616,-255 239,0 445,85 615,255 171,171 256,376 256,616 0,240 -85,445 -256,615z"/>
  </g>
 </g>
</svg>
