<?xml version="1.0" encoding="iso-8859-1"?>
<!-- Generator: Adobe Illustrator 16.0.0, SVG Export Plug-In . SVG Version: 6.00 Build 0)  -->
<!DOCTYPE svg PUBLIC "-//W3C//DTD SVG 1.1//EN" "http://www.w3.org/Graphics/SVG/1.1/DTD/svg11.dtd">
<svg version="1.1" id="Capa_1" xmlns="http://www.w3.org/2000/svg" xmlns:xlink="http://www.w3.org/1999/xlink" x="0px" y="0px"
	 width="107.5px" height="107.5px" viewBox="0 0 107.5 107.5" style="enable-background:new 0 0 107.5 107.5;" xml:space="preserve"
	>
<g>
	<path d="M87,0H20.5c-1.656,0-3,1.343-3,3v101.5c0,1.657,1.344,3,3,3H87c1.656,0,3-1.343,3-3V3C90,1.343,88.656,0,87,0z
		 M53.75,103.75c-1.381,0-2.5-1.119-2.5-2.5s1.119-2.5,2.5-2.5s2.5,1.119,2.5,2.5S55.131,103.75,53.75,103.75z M86.333,96.416
		H21.167V7.083h65.166V96.416z"/>
</g>
<g>
</g>
<g>
</g>
<g>
</g>
<g>
</g>
<g>
</g>
<g>
</g>
<g>
</g>
<g>
</g>
<g>
</g>
<g>
</g>
<g>
</g>
<g>
</g>
<g>
</g>
<g>
</g>
<g>
</g>
</svg>
