<?xml version="1.0" encoding="UTF-8"?>
<!DOCTYPE svg PUBLIC "-//W3C//DTD SVG 1.1//EN" "http://www.w3.org/Graphics/SVG/1.1/DTD/svg11.dtd">
<!-- Creator: CorelDRAW X7 -->
<svg xmlns="http://www.w3.org/2000/svg" xml:space="preserve" width="114.297mm" height="62.0752mm" version="1.1" style="shape-rendering:geometricPrecision; text-rendering:geometricPrecision; image-rendering:optimizeQuality; fill-rule:evenodd; clip-rule:evenodd"
viewBox="0 0 2243 1218"
 xmlns:xlink="http://www.w3.org/1999/xlink">
 <defs>
  <style type="text/css">
   <![CDATA[
    .fil0 {fill:#B0B0B0;fill-rule:nonzero}
   ]]>
  </style>
 </defs>
 <g id="Capa_x0020_1">
  <metadata id="CorelCorpID_0Corel-Layer"/>
  <path class="fil0" d="M889 0l0 446 -233 0 465 446 466 -446 -233 0 0 -446 -465 0zm0 223m-116 223m116 223m465 0m116 -223m-116 -223m-233 -223"/>
  <path class="fil0" d="M43 1105l21 0 43 110 -22 0 -9 -22 -45 0 -9 22 -22 0 43 -110zm10 29l-15 38 30 0 -15 -38z"/>
  <path id="1" class="fil0" d="M124 1105l23 0c12,0 21,1 26,3 5,2 9,6 12,11 3,5 5,11 5,18 0,7 -2,13 -5,18 -4,5 -9,9 -16,11l26 49 -23 0 -25 -46 -2 0 0 46 -21 0 0 -110zm21 43l7 0c7,0 11,-1 14,-2 2,-2 4,-5 4,-9 0,-3 -1,-5 -2,-7 -2,-1 -3,-3 -5,-3 -2,-1 -6,-2 -12,-2l-6 0 0 23z"/>
  <path id="2" class="fil0" d="M214 1105l22 0c12,0 21,1 26,3 5,2 9,6 12,11 4,5 5,11 5,18 0,7 -2,13 -5,18 -3,5 -9,9 -16,11l26 49 -23 0 -24 -46 -3 0 0 46 -20 0 0 -110zm20 43l7 0c7,0 12,-1 14,-2 3,-2 4,-5 4,-9 0,-3 -1,-5 -2,-7 -1,-1 -3,-3 -5,-3 -2,-1 -6,-2 -12,-2l-6 0 0 23z"/>
  <path id="3" class="fil0" d="M335 1105l21 0 43 110 -22 0 -9 -22 -45 0 -9 22 -22 0 43 -110zm11 29l-15 38 30 0 -15 -38z"/>
  <path id="4" class="fil0" d="M473 1120l-15 14c-6,-8 -11,-12 -17,-12 -3,0 -5,1 -7,3 -2,1 -2,3 -2,5 0,1 0,3 1,5 2,2 7,7 16,14 8,7 13,11 15,13 4,4 7,8 9,12 1,4 2,8 2,13 0,9 -3,16 -9,22 -6,6 -15,9 -25,9 -8,0 -14,-2 -20,-6 -6,-3 -11,-10 -15,-18l17 -10c6,9 12,14 19,14 3,0 7,-1 9,-3 2,-2 4,-5 4,-7 0,-3 -1,-5 -3,-8 -2,-2 -6,-6 -12,-11 -12,-10 -20,-18 -24,-23 -3,-5 -5,-11 -5,-16 0,-8 3,-14 9,-20 6,-5 13,-8 21,-8 6,0 11,1 16,4 5,3 10,7 16,14z"/>
  <polygon id="5" class="fil0" points="485,1105 546,1105 546,1126 525,1126 525,1215 504,1215 504,1126 485,1126 "/>
  <path id="6" class="fil0" d="M561 1105l23 0c12,0 21,1 26,3 5,2 9,6 12,11 3,5 5,11 5,18 0,7 -2,13 -5,18 -4,5 -9,9 -16,11l26 49 -23 0 -25 -46 -2 0 0 46 -21 0 0 -110zm21 43l7 0c7,0 11,-1 14,-2 2,-2 4,-5 4,-9 0,-3 -1,-5 -2,-7 -1,-1 -3,-3 -5,-3 -2,-1 -6,-2 -12,-2l-6 0 0 23z"/>
  <polygon id="7" class="fil0" points="649,1105 710,1105 710,1126 670,1126 670,1145 710,1145 710,1166 670,1166 670,1195 710,1195 710,1215 649,1215 "/>
  <polygon id="8" class="fil0" points="764,1105 787,1105 807,1145 828,1105 850,1105 818,1168 818,1215 797,1215 797,1168 "/>
  <path id="9" class="fil0" d="M969 1120l-16 14c-5,-8 -11,-12 -16,-12 -3,0 -5,1 -7,3 -2,1 -3,3 -3,5 0,1 1,3 2,5 2,2 7,7 16,14 8,7 12,11 14,13 4,4 7,8 9,12 2,4 3,8 3,13 0,9 -3,16 -10,22 -6,6 -14,9 -24,9 -8,0 -15,-2 -21,-6 -5,-3 -11,-10 -15,-18l18 -10c5,9 12,14 18,14 4,0 7,-1 10,-3 2,-2 3,-5 3,-7 0,-3 -1,-5 -3,-8 -1,-2 -5,-6 -12,-11 -12,-10 -20,-18 -23,-23 -4,-5 -5,-11 -5,-16 0,-8 2,-14 8,-20 6,-5 13,-8 22,-8 5,0 11,1 16,4 5,3 10,7 16,14z"/>
  <path id="10" class="fil0" d="M990 1105l21 0 0 71c0,7 1,11 2,13 1,3 3,5 5,7 3,1 6,2 9,2 4,0 7,-1 10,-3 2,-1 4,-4 5,-6 1,-3 2,-8 2,-15l0 -69 21 0 0 66c0,11 -1,19 -2,23 -1,4 -4,8 -7,12 -4,4 -8,7 -12,9 -5,2 -10,3 -16,3 -8,0 -15,-2 -21,-5 -6,-4 -10,-9 -13,-14 -3,-6 -4,-15 -4,-28l0 -66z"/>
  <polygon id="11" class="fil0" points="1090,1105 1150,1105 1150,1126 1111,1126 1111,1145 1150,1145 1150,1166 1111,1166 1111,1195 1150,1195 1150,1215 1090,1215 "/>
  <polygon id="12" class="fil0" points="1169,1105 1190,1105 1190,1195 1221,1195 1221,1215 1169,1215 "/>
  <polygon id="13" class="fil0" points="1226,1105 1288,1105 1288,1126 1267,1126 1267,1215 1246,1215 1246,1126 1226,1126 "/>
  <polygon id="14" class="fil0" points="1302,1105 1362,1105 1362,1126 1323,1126 1323,1145 1362,1145 1362,1166 1323,1166 1323,1195 1362,1195 1362,1215 1302,1215 "/>
  <polygon id="15" class="fil0" points="1425,1105 1446,1105 1446,1195 1477,1195 1477,1215 1425,1215 "/>
  <path id="16" class="fil0" d="M1526 1105l22 0 42 110 -22 0 -8 -22 -46 0 -8 22 -22 0 42 -110zm11 29l-15 38 30 0 -15 -38z"/>
  <polygon id="17" class="fil0" points="1648,1105 1669,1105 1669,1215 1648,1215 "/>
  <polygon id="18" class="fil0" points="1703,1105 1724,1105 1749,1182 1775,1105 1796,1105 1814,1215 1794,1215 1782,1146 1759,1215 1740,1215 1717,1146 1705,1215 1684,1215 "/>
  <path id="19" class="fil0" d="M1865 1105l21 0 43 110 -22 0 -9 -22 -45 0 -9 22 -22 0 43 -110zm11 29l-15 38 30 0 -15 -38z"/>
  <path id="20" class="fil0" d="M2047 1123l-15 15c-9,-10 -20,-15 -32,-15 -11,0 -20,3 -28,11 -7,7 -11,16 -11,26 0,10 4,20 12,27 7,7 17,11 28,11 7,0 13,-2 18,-5 5,-3 9,-7 12,-14l-32 0 0 -20 56 0 0 5c0,10 -2,19 -7,28 -5,8 -12,15 -20,19 -8,5 -17,7 -28,7 -11,0 -22,-2 -31,-7 -9,-5 -16,-12 -21,-22 -5,-9 -8,-19 -8,-29 0,-15 5,-28 15,-39 11,-12 26,-19 44,-19 10,0 19,2 27,5 8,3 14,9 21,16z"/>
  <polygon id="21" class="fil0" points="2074,1105 2135,1105 2135,1126 2095,1126 2095,1145 2135,1145 2135,1166 2095,1166 2095,1195 2135,1195 2135,1215 2074,1215 "/>
  <polygon id="22" class="fil0" points="2155,1105 2174,1105 2222,1178 2222,1105 2243,1105 2243,1215 2223,1215 2175,1143 2175,1215 2155,1215 "/>
 </g>
</svg>
